<svg version="1.1" style="font-family:&quot;Lucida Grande&quot;, &quot;Lucida Sans Unicode&quot;, Arial, Helvetica, sans-serif;font-size:12px;" xmlns="http://www.w3.org/2000/svg" width="961" height="350"><style type="text/css"><![CDATA[
* { box-sizing: border-box; }

]]></style><desc>Created with Highcharts 4.2.6</desc><defs><clipPath id="highcharts-6"><rect x="0" y="0" width="821" height="124"></rect></clipPath></defs><rect x="0" y="0" width="961" height="350" fill="#FFFFFF" class=" highcharts-background"></rect><g class="highcharts-grid"></g><g class="highcharts-grid"><path fill="none" d="M 130 134.5 L 951 134.5" stroke="#D8D8D8" stroke-width="1" opacity="1"></path><path fill="none" d="M 130 93.5 L 951 93.5" stroke="#D8D8D8" stroke-width="1" opacity="1"></path><path fill="none" d="M 130 51.5 L 951 51.5" stroke="#D8D8D8" stroke-width="1" opacity="1"></path><path fill="none" d="M 130 9.5 L 951 9.5" stroke="#D8D8D8" stroke-width="1" opacity="1"></path></g><g class="highcharts-axis"><path fill="none" d="M 144.5 134 L 144.5 144" stroke="#C0D0E0" stroke-width="1" opacity="1"></path><path fill="none" d="M 160.5 134 L 160.5 144" stroke="#C0D0E0" stroke-width="1" opacity="1"></path><path fill="none" d="M 175.5 134 L 175.5 144" stroke="#C0D0E0" stroke-width="1" opacity="1"></path><path fill="none" d="M 191.5 134 L 191.5 144" stroke="#C0D0E0" stroke-width="1" opacity="1"></path><path fill="none" d="M 206.5 134 L 206.5 144" stroke="#C0D0E0" stroke-width="1" opacity="1"></path><path fill="none" d="M 222.5 134 L 222.5 144" stroke="#C0D0E0" stroke-width="1" opacity="1"></path><path fill="none" d="M 237.5 134 L 237.5 144" stroke="#C0D0E0" stroke-width="1" opacity="1"></path><path fill="none" d="M 253.5 134 L 253.5 144" stroke="#C0D0E0" stroke-width="1" opacity="1"></path><path fill="none" d="M 268.5 134 L 268.5 144" stroke="#C0D0E0" stroke-width="1" opacity="1"></path><path fill="none" d="M 284.5 134 L 284.5 144" stroke="#C0D0E0" stroke-width="1" opacity="1"></path><path fill="none" d="M 299.5 134 L 299.5 144" stroke="#C0D0E0" stroke-width="1" opacity="1"></path><path fill="none" d="M 315.5 134 L 315.5 144" stroke="#C0D0E0" stroke-width="1" opacity="1"></path><path fill="none" d="M 330.5 134 L 330.5 144" stroke="#C0D0E0" stroke-width="1" opacity="1"></path><path fill="none" d="M 346.5 134 L 346.5 144" stroke="#C0D0E0" stroke-width="1" opacity="1"></path><path fill="none" d="M 361.5 134 L 361.5 144" stroke="#C0D0E0" stroke-width="1" opacity="1"></path><path fill="none" d="M 377.5 134 L 377.5 144" stroke="#C0D0E0" stroke-width="1" opacity="1"></path><path fill="none" d="M 392.5 134 L 392.5 144" stroke="#C0D0E0" stroke-width="1" opacity="1"></path><path fill="none" d="M 408.5 134 L 408.5 144" stroke="#C0D0E0" stroke-width="1" opacity="1"></path><path fill="none" d="M 423.5 134 L 423.5 144" stroke="#C0D0E0" stroke-width="1" opacity="1"></path><path fill="none" d="M 439.5 134 L 439.5 144" stroke="#C0D0E0" stroke-width="1" opacity="1"></path><path fill="none" d="M 454.5 134 L 454.5 144" stroke="#C0D0E0" stroke-width="1" opacity="1"></path><path fill="none" d="M 470.5 134 L 470.5 144" stroke="#C0D0E0" stroke-width="1" opacity="1"></path><path fill="none" d="M 485.5 134 L 485.5 144" stroke="#C0D0E0" stroke-width="1" opacity="1"></path><path fill="none" d="M 501.5 134 L 501.5 144" stroke="#C0D0E0" stroke-width="1" opacity="1"></path><path fill="none" d="M 516.5 134 L 516.5 144" stroke="#C0D0E0" stroke-width="1" opacity="1"></path><path fill="none" d="M 532.5 134 L 532.5 144" stroke="#C0D0E0" stroke-width="1" opacity="1"></path><path fill="none" d="M 547.5 134 L 547.5 144" stroke="#C0D0E0" stroke-width="1" opacity="1"></path><path fill="none" d="M 563.5 134 L 563.5 144" stroke="#C0D0E0" stroke-width="1" opacity="1"></path><path fill="none" d="M 578.5 134 L 578.5 144" stroke="#C0D0E0" stroke-width="1" opacity="1"></path><path fill="none" d="M 594.5 134 L 594.5 144" stroke="#C0D0E0" stroke-width="1" opacity="1"></path><path fill="none" d="M 609.5 134 L 609.5 144" stroke="#C0D0E0" stroke-width="1" opacity="1"></path><path fill="none" d="M 625.5 134 L 625.5 144" stroke="#C0D0E0" stroke-width="1" opacity="1"></path><path fill="none" d="M 640.5 134 L 640.5 144" stroke="#C0D0E0" stroke-width="1" opacity="1"></path><path fill="none" d="M 656.5 134 L 656.5 144" stroke="#C0D0E0" stroke-width="1" opacity="1"></path><path fill="none" d="M 671.5 134 L 671.5 144" stroke="#C0D0E0" stroke-width="1" opacity="1"></path><path fill="none" d="M 687.5 134 L 687.5 144" stroke="#C0D0E0" stroke-width="1" opacity="1"></path><path fill="none" d="M 702.5 134 L 702.5 144" stroke="#C0D0E0" stroke-width="1" opacity="1"></path><path fill="none" d="M 718.5 134 L 718.5 144" stroke="#C0D0E0" stroke-width="1" opacity="1"></path><path fill="none" d="M 733.5 134 L 733.5 144" stroke="#C0D0E0" stroke-width="1" opacity="1"></path><path fill="none" d="M 749.5 134 L 749.5 144" stroke="#C0D0E0" stroke-width="1" opacity="1"></path><path fill="none" d="M 764.5 134 L 764.5 144" stroke="#C0D0E0" stroke-width="1" opacity="1"></path><path fill="none" d="M 780.5 134 L 780.5 144" stroke="#C0D0E0" stroke-width="1" opacity="1"></path><path fill="none" d="M 795.5 134 L 795.5 144" stroke="#C0D0E0" stroke-width="1" opacity="1"></path><path fill="none" d="M 811.5 134 L 811.5 144" stroke="#C0D0E0" stroke-width="1" opacity="1"></path><path fill="none" d="M 826.5 134 L 826.5 144" stroke="#C0D0E0" stroke-width="1" opacity="1"></path><path fill="none" d="M 842.5 134 L 842.5 144" stroke="#C0D0E0" stroke-width="1" opacity="1"></path><path fill="none" d="M 857.5 134 L 857.5 144" stroke="#C0D0E0" stroke-width="1" opacity="1"></path><path fill="none" d="M 873.5 134 L 873.5 144" stroke="#C0D0E0" stroke-width="1" opacity="1"></path><path fill="none" d="M 888.5 134 L 888.5 144" stroke="#C0D0E0" stroke-width="1" opacity="1"></path><path fill="none" d="M 904.5 134 L 904.5 144" stroke="#C0D0E0" stroke-width="1" opacity="1"></path><path fill="none" d="M 919.5 134 L 919.5 144" stroke="#C0D0E0" stroke-width="1" opacity="1"></path><path fill="none" d="M 935.5 134 L 935.5 144" stroke="#C0D0E0" stroke-width="1" opacity="1"></path><path fill="none" d="M 951.5 134 L 951.5 144" stroke="#C0D0E0" stroke-width="1" opacity="1"></path><path fill="none" d="M 129.5 134 L 129.5 144" stroke="#C0D0E0" stroke-width="1" opacity="1"></path><path fill="none" d="M 130 134.5 L 951 134.5" stroke="#C0D0E0" stroke-width="1"></path></g><g class="highcharts-axis"><text x="84.140625" text-anchor="middle" transform="translate(0,0) rotate(270 84.140625 72)" class=" highcharts-yaxis-title" style="color:#707070;fill:#707070;" y="72"><tspan>Number of Samples</tspan></text></g><g class="highcharts-series-group"><g class="highcharts-series highcharts-series-0 highcharts-tracker" transform="translate(130,10) scale(1 1)" style="cursor:pointer;" clip-path="url(#highcharts-6)"><rect x="3.5" y="51.5" width="8" height="9" stroke="#FFFFFF" stroke-width="1" fill="#ccc" rx="0" ry="0"></rect><rect x="19.5" y="65.5" width="8" height="7" stroke="#FFFFFF" stroke-width="1" fill="#ccc" rx="0" ry="0"></rect><rect x="34.5" y="93.5" width="8" height="2" stroke="#FFFFFF" stroke-width="1" fill="#ccc" rx="0" ry="0"></rect><rect x="49.5" y="75.5" width="8" height="5" stroke="#FFFFFF" stroke-width="1" fill="#ccc" rx="0" ry="0"></rect><rect x="65.5" y="95.5" width="8" height="4" stroke="#FFFFFF" stroke-width="1" fill="#ccc" rx="0" ry="0"></rect><rect x="80.5" y="51.5" width="8" height="9" stroke="#FFFFFF" stroke-width="1" fill="#ccc" rx="0" ry="0"></rect><rect x="96.5" y="122.5" width="8" height="0" stroke="#FFFFFF" stroke-width="1" fill="#ccc" rx="0" ry="0"></rect><rect x="111.5" y="107.5" width="8" height="2" stroke="#FFFFFF" stroke-width="1" fill="#ccc" rx="0" ry="0"></rect><rect x="127.5" y="104.5" width="8" height="2" stroke="#FFFFFF" stroke-width="1" fill="#ccc" rx="0" ry="0"></rect><rect x="142.5" y="98.5" width="8" height="2" stroke="#FFFFFF" stroke-width="1" fill="#ccc" rx="0" ry="0"></rect><rect x="158.5" y="102.5" width="8" height="1" stroke="#FFFFFF" stroke-width="1" fill="#ccc" rx="0" ry="0"></rect><rect x="173.5" y="95.5" width="8" height="4" stroke="#FFFFFF" stroke-width="1" fill="#ccc" rx="0" ry="0"></rect><rect x="189.5" y="98.5" width="8" height="4" stroke="#FFFFFF" stroke-width="1" fill="#ccc" rx="0" ry="0"></rect><rect x="204.5" y="103.5" width="8" height="1" stroke="#FFFFFF" stroke-width="1" fill="#ccc" rx="0" ry="0"></rect><rect x="220.5" y="104.5" width="8" height="2" stroke="#FFFFFF" stroke-width="1" fill="#ccc" rx="0" ry="0"></rect><rect x="235.5" y="104.5" width="8" height="2" stroke="#FFFFFF" stroke-width="1" fill="#ccc" rx="0" ry="0"></rect><rect x="251.5" y="100.5" width="8" height="3" stroke="#FFFFFF" stroke-width="1" fill="#ccc" rx="0" ry="0"></rect><rect x="266.5" y="103.5" width="8" height="3" stroke="#FFFFFF" stroke-width="1" fill="#ccc" rx="0" ry="0"></rect><rect x="282.5" y="109.5" width="8" height="1" stroke="#FFFFFF" stroke-width="1" fill="#ccc" rx="0" ry="0"></rect><rect x="297.5" y="109.5" width="8" height="2" stroke="#FFFFFF" stroke-width="1" fill="#ccc" rx="0" ry="0"></rect><rect x="313.5" y="76.5" width="8" height="7" stroke="#FFFFFF" stroke-width="1" fill="#ccc" rx="0" ry="0"></rect><rect x="328.5" y="103.5" width="8" height="2" stroke="#FFFFFF" stroke-width="1" fill="#ccc" rx="0" ry="0"></rect><rect x="344.5" y="67.5" width="8" height="7" stroke="#FFFFFF" stroke-width="1" fill="#ccc" rx="0" ry="0"></rect><rect x="359.5" y="123.5" width="8" height="0" stroke="#FFFFFF" stroke-width="1" fill="#ccc" rx="0" ry="0"></rect><rect x="375.5" y="123.5" width="8" height="0" stroke="#FFFFFF" stroke-width="1" fill="#ccc" rx="0" ry="0"></rect><rect x="390.5" y="85.5" width="8" height="5" stroke="#FFFFFF" stroke-width="1" fill="#ccc" rx="0" ry="0"></rect><rect x="406.5" y="79.5" width="8" height="4" stroke="#FFFFFF" stroke-width="1" fill="#ccc" rx="0" ry="0"></rect><rect x="421.5" y="84.5" width="8" height="5" stroke="#FFFFFF" stroke-width="1" fill="#ccc" rx="0" ry="0"></rect><rect x="437.5" y="57.5" width="8" height="8" stroke="#FFFFFF" stroke-width="1" fill="#ccc" rx="0" ry="0"></rect><rect x="452.5" y="63.5" width="8" height="6" stroke="#FFFFFF" stroke-width="1" fill="#ccc" rx="0" ry="0"></rect><rect x="468.5" y="123.5" width="8" height="0" stroke="#FFFFFF" stroke-width="1" fill="#ccc" rx="0" ry="0"></rect><rect x="483.5" y="75.5" width="8" height="5" stroke="#FFFFFF" stroke-width="1" fill="#ccc" rx="0" ry="0"></rect><rect x="499.5" y="74.5" width="8" height="5" stroke="#FFFFFF" stroke-width="1" fill="#ccc" rx="0" ry="0"></rect><rect x="514.5" y="117.5" width="8" height="1" stroke="#FFFFFF" stroke-width="1" fill="#ccc" rx="0" ry="0"></rect><rect x="530.5" y="95.5" width="8" height="4" stroke="#FFFFFF" stroke-width="1" fill="#ccc" rx="0" ry="0"></rect><rect x="545.5" y="53.5" width="8" height="8" stroke="#FFFFFF" stroke-width="1" fill="#ccc" rx="0" ry="0"></rect><rect x="561.5" y="108.5" width="8" height="2" stroke="#FFFFFF" stroke-width="1" fill="#ccc" rx="0" ry="0"></rect><rect x="576.5" y="31.5" width="8" height="12" stroke="#FFFFFF" stroke-width="1" fill="#ccc" rx="0" ry="0"></rect><rect x="592.5" y="56.5" width="8" height="8" stroke="#FFFFFF" stroke-width="1" fill="#ccc" rx="0" ry="0"></rect><rect x="607.5" y="102.5" width="8" height="2" stroke="#FFFFFF" stroke-width="1" fill="#ccc" rx="0" ry="0"></rect><rect x="623.5" y="83.5" width="8" height="5" stroke="#FFFFFF" stroke-width="1" fill="#ccc" rx="0" ry="0"></rect><rect x="638.5" y="94.5" width="8" height="4" stroke="#FFFFFF" stroke-width="1" fill="#ccc" rx="0" ry="0"></rect><rect x="654.5" y="99.5" width="8" height="3" stroke="#FFFFFF" stroke-width="1" fill="#ccc" rx="0" ry="0"></rect><rect x="669.5" y="60.5" width="8" height="9" stroke="#FFFFFF" stroke-width="1" fill="#ccc" rx="0" ry="0"></rect><rect x="685.5" y="46.5" width="8" height="10" stroke="#FFFFFF" stroke-width="1" fill="#ccc" rx="0" ry="0"></rect><rect x="700.5" y="101.5" width="8" height="3" stroke="#FFFFFF" stroke-width="1" fill="#ccc" rx="0" ry="0"></rect><rect x="716.5" y="97.5" width="8" height="3" stroke="#FFFFFF" stroke-width="1" fill="#ccc" rx="0" ry="0"></rect><rect x="731.5" y="81.5" width="8" height="4" stroke="#FFFFFF" stroke-width="1" fill="#ccc" rx="0" ry="0"></rect><rect x="747.5" y="81.5" width="8" height="6" stroke="#FFFFFF" stroke-width="1" fill="#ccc" rx="0" ry="0"></rect><rect x="762.5" y="50.5" width="8" height="8" stroke="#FFFFFF" stroke-width="1" fill="#ccc" rx="0" ry="0"></rect><rect x="778.5" y="106.5" width="8" height="1" stroke="#FFFFFF" stroke-width="1" fill="#ccc" rx="0" ry="0"></rect><rect x="793.5" y="105.5" width="8" height="1" stroke="#FFFFFF" stroke-width="1" fill="#ccc" rx="0" ry="0"></rect><rect x="809.5" y="57.5" width="8" height="6" stroke="#FFFFFF" stroke-width="1" fill="#ccc" rx="0" ry="0"></rect></g><g class="highcharts-markers highcharts-series-0" transform="translate(130,10) scale(1 1)" clip-path="none"></g><g class="highcharts-series highcharts-series-1 highcharts-tracker" transform="translate(130,10) scale(1 1)" style="cursor:pointer;" clip-path="url(#highcharts-6)"><rect x="3.5" y="60.5" width="8" height="64" stroke="#FFFFFF" stroke-width="1" fill="#FF6600" rx="0" ry="0"></rect><rect x="19.5" y="72.5" width="8" height="52" stroke="#FFFFFF" stroke-width="1" fill="#FFAA00" rx="0" ry="0"></rect><rect x="34.5" y="95.5" width="8" height="29" stroke="#FFFFFF" stroke-width="1" fill="#33DD33" rx="0" ry="0"></rect><rect x="49.5" y="80.5" width="8" height="44" stroke="#FFFFFF" stroke-width="1" fill="#FF5555" rx="0" ry="0"></rect><rect x="65.5" y="99.5" width="8" height="25" stroke="#FFFFFF" stroke-width="1" fill="#FFAA99" rx="0" ry="0"></rect><rect x="80.5" y="60.5" width="8" height="64" stroke="#FFFFFF" stroke-width="1" fill="#FF0000" rx="0" ry="0"></rect><rect x="96.5" y="122.5" width="8" height="2" stroke="#FFFFFF" stroke-width="1" fill="#AA0000" rx="0" ry="0"></rect><rect x="111.5" y="109.5" width="8" height="15" stroke="#FFFFFF" stroke-width="1" fill="#EEEE00" rx="0" ry="0"></rect><rect x="127.5" y="106.5" width="8" height="18" stroke="#FFFFFF" stroke-width="1" fill="#EEEE00" rx="0" ry="0"></rect><rect x="142.5" y="100.5" width="8" height="24" stroke="#FFFFFF" stroke-width="1" fill="#EEEE00" rx="0" ry="0"></rect><rect x="158.5" y="103.5" width="8" height="21" stroke="#FFFFFF" stroke-width="1" fill="#EEEE00" rx="0" ry="0"></rect><rect x="173.5" y="99.5" width="8" height="25" stroke="#FFFFFF" stroke-width="1" fill="#EEEE00" rx="0" ry="0"></rect><rect x="189.5" y="102.5" width="8" height="22" stroke="#FFFFFF" stroke-width="1" fill="#EEEE00" rx="0" ry="0"></rect><rect x="204.5" y="104.5" width="8" height="20" stroke="#FFFFFF" stroke-width="1" fill="#EEEE00" rx="0" ry="0"></rect><rect x="220.5" y="106.5" width="8" height="18" stroke="#FFFFFF" stroke-width="1" fill="#EEEE00" rx="0" ry="0"></rect><rect x="235.5" y="106.5" width="8" height="18" stroke="#FFFFFF" stroke-width="1" fill="#EEEE00" rx="0" ry="0"></rect><rect x="251.5" y="103.5" width="8" height="21" stroke="#FFFFFF" stroke-width="1" fill="#EEEE00" rx="0" ry="0"></rect><rect x="266.5" y="106.5" width="8" height="18" stroke="#FFFFFF" stroke-width="1" fill="#EEEE00" rx="0" ry="0"></rect><rect x="282.5" y="110.5" width="8" height="14" stroke="#FFFFFF" stroke-width="1" fill="#EEEE00" rx="0" ry="0"></rect><rect x="297.5" y="111.5" width="8" height="13" stroke="#FFFFFF" stroke-width="1" fill="#EEEE00" rx="0" ry="0"></rect><rect x="313.5" y="83.5" width="8" height="41" stroke="#FFFFFF" stroke-width="1" fill="#33CCCC" rx="0" ry="0"></rect><rect x="328.5" y="105.5" width="8" height="19" stroke="#FFFFFF" stroke-width="1" fill="#CC66FF" rx="0" ry="0"></rect><rect x="344.5" y="74.5" width="8" height="50" stroke="#FFFFFF" stroke-width="1" fill="#AAEEFF" rx="0" ry="0"></rect><rect x="359.5" y="123.5" width="8" height="1" stroke="#FFFFFF" stroke-width="1" fill="#FFCCCC" rx="0" ry="0"></rect><rect x="375.5" y="123.5" width="8" height="1" stroke="#FFFFFF" stroke-width="1" fill="#CCAADD" rx="0" ry="0"></rect><rect x="390.5" y="90.5" width="8" height="34" stroke="#FFFFFF" stroke-width="1" fill="#EEBB77" rx="0" ry="0"></rect><rect x="406.5" y="83.5" width="8" height="41" stroke="#FFFFFF" stroke-width="1" fill="#CC9955" rx="0" ry="0"></rect><rect x="421.5" y="89.5" width="8" height="35" stroke="#FFFFFF" stroke-width="1" fill="#8B7355" rx="0" ry="0"></rect><rect x="437.5" y="65.5" width="8" height="59" stroke="#FFFFFF" stroke-width="1" fill="#552200" rx="0" ry="0"></rect><rect x="452.5" y="69.5" width="8" height="55" stroke="#FFFFFF" stroke-width="1" fill="#BB9988" rx="0" ry="0"></rect><rect x="468.5" y="123.5" width="8" height="1" stroke="#FFFFFF" stroke-width="1" fill="#FFCCCC" rx="0" ry="0"></rect><rect x="483.5" y="80.5" width="8" height="44" stroke="#FFFFFF" stroke-width="1" fill="#9900FF" rx="0" ry="0"></rect><rect x="499.5" y="79.5" width="8" height="45" stroke="#FFFFFF" stroke-width="1" fill="#660099" rx="0" ry="0"></rect><rect x="514.5" y="118.5" width="8" height="6" stroke="#FFFFFF" stroke-width="1" fill="#22FFDD" rx="0" ry="0"></rect><rect x="530.5" y="99.5" width="8" height="25" stroke="#FFFFFF" stroke-width="1" fill="#AABB66" rx="0" ry="0"></rect><rect x="545.5" y="61.5" width="8" height="63" stroke="#FFFFFF" stroke-width="1" fill="#99FF00" rx="0" ry="0"></rect><rect x="561.5" y="110.5" width="8" height="14" stroke="#FFFFFF" stroke-width="1" fill="#99BB88" rx="0" ry="0"></rect><rect x="576.5" y="43.5" width="8" height="81" stroke="#FFFFFF" stroke-width="1" fill="#AAAAFF" rx="0" ry="0"></rect><rect x="592.5" y="64.5" width="8" height="60" stroke="#FFFFFF" stroke-width="1" fill="#FFD700" rx="0" ry="0"></rect><rect x="607.5" y="104.5" width="8" height="20" stroke="#FFFFFF" stroke-width="1" fill="#FFAAFF" rx="0" ry="0"></rect><rect x="623.5" y="88.5" width="8" height="36" stroke="#FFFFFF" stroke-width="1" fill="#995522" rx="0" ry="0"></rect><rect x="638.5" y="98.5" width="8" height="26" stroke="#FFFFFF" stroke-width="1" fill="#AAFF99" rx="0" ry="0"></rect><rect x="654.5" y="102.5" width="8" height="22" stroke="#FFFFFF" stroke-width="1" fill="#DDDDDD" rx="0" ry="0"></rect><rect x="669.5" y="69.5" width="8" height="55" stroke="#FFFFFF" stroke-width="1" fill="#0000FF" rx="0" ry="0"></rect><rect x="685.5" y="56.5" width="8" height="68" stroke="#FFFFFF" stroke-width="1" fill="#7777FF" rx="0" ry="0"></rect><rect x="700.5" y="104.5" width="8" height="20" stroke="#FFFFFF" stroke-width="1" fill="#555522" rx="0" ry="0"></rect><rect x="716.5" y="100.5" width="8" height="24" stroke="#FFFFFF" stroke-width="1" fill="#778855" rx="0" ry="0"></rect><rect x="731.5" y="85.5" width="8" height="39" stroke="#FFFFFF" stroke-width="1" fill="#FFDD99" rx="0" ry="0"></rect><rect x="747.5" y="87.5" width="8" height="37" stroke="#FFFFFF" stroke-width="1" fill="#AAAAAA" rx="0" ry="0"></rect><rect x="762.5" y="58.5" width="8" height="66" stroke="#FFFFFF" stroke-width="1" fill="#006600" rx="0" ry="0"></rect><rect x="778.5" y="107.5" width="8" height="17" stroke="#FFFFFF" stroke-width="1" fill="#FF66FF" rx="0" ry="0"></rect><rect x="793.5" y="106.5" width="8" height="18" stroke="#FFFFFF" stroke-width="1" fill="#FF5599" rx="0" ry="0"></rect><rect x="809.5" y="63.5" width="8" height="61" stroke="#FFFFFF" stroke-width="1" fill="#FF00BB" rx="0" ry="0"></rect></g><g class="highcharts-markers highcharts-series-1" transform="translate(130,10) scale(1 1)" clip-path="none"></g></g><path fill="none" d="M 130 122.5 L 951 122.5" stroke="#FF0000" stroke-width="1" stroke-dasharray="4,3"></path><text x="90" text-anchor="start" transform="translate(0,0)" style="color:#777777;fill:#777777;" y="121" visibility="visible">n&gt;=70</text><g class="highcharts-axis-labels highcharts-xaxis-labels"><text x="140.5737101436141" style="color:#606060;cursor:default;font-size:12px;font-family:Verdana, sans-serif;white-space:nowrap;text-overflow:none;fill:#606060;width:350px;" text-anchor="end" transform="translate(0,0) rotate(-45 140.5737101436141 150)" y="150" opacity="1"><tspan>Adipose - Subcutaneous</tspan></text><text x="156.06427618134995" style="color:#606060;cursor:default;font-size:12px;font-family:Verdana, sans-serif;white-space:nowrap;text-overflow:none;fill:#606060;width:350px;" text-anchor="end" transform="translate(0,0) rotate(-45 156.06427618134995 150)" y="150" opacity="1"><tspan>Adipose - Visceral (Omentum)</tspan></text><text x="171.5548422190858" style="color:#606060;cursor:default;font-size:12px;font-family:Verdana, sans-serif;white-space:nowrap;text-overflow:none;fill:#606060;width:350px;" text-anchor="end" transform="translate(0,0) rotate(-45 171.5548422190858 150)" y="150" opacity="1"><tspan>Adrenal Gland</tspan></text><text x="187.04540825682164" style="color:#606060;cursor:default;font-size:12px;font-family:Verdana, sans-serif;white-space:nowrap;text-overflow:none;fill:#606060;width:350px;" text-anchor="end" transform="translate(0,0) rotate(-45 187.04540825682164 150)" y="150" opacity="1"><tspan>Artery - Aorta</tspan></text><text x="202.5359742945575" style="color:#606060;cursor:default;font-size:12px;font-family:Verdana, sans-serif;white-space:nowrap;text-overflow:none;fill:#606060;width:350px;" text-anchor="end" transform="translate(0,0) rotate(-45 202.5359742945575 150)" y="150" opacity="1"><tspan>Artery - Coronary</tspan></text><text x="218.02654033229334" style="color:#606060;cursor:default;font-size:12px;font-family:Verdana, sans-serif;white-space:nowrap;text-overflow:none;fill:#606060;width:350px;" text-anchor="end" transform="translate(0,0) rotate(-45 218.02654033229334 150)" y="150" opacity="1"><tspan>Artery - Tibial</tspan></text><text x="233.5171063700292" style="color:#606060;cursor:default;font-size:12px;font-family:Verdana, sans-serif;white-space:nowrap;text-overflow:none;fill:#606060;width:350px;" text-anchor="end" transform="translate(0,0) rotate(-45 233.5171063700292 150)" y="150" opacity="1"><tspan>Bladder</tspan></text><text x="249.00767240776506" style="color:#606060;cursor:default;font-size:12px;font-family:Verdana, sans-serif;white-space:nowrap;text-overflow:none;fill:#606060;width:350px;" text-anchor="end" transform="translate(0,0) rotate(-45 249.00767240776506 150)" y="150" opacity="1"><tspan>Brain - Amygdala</tspan></text><text x="264.49823844550093" style="color:#606060;cursor:default;font-size:12px;font-family:Verdana, sans-serif;white-space:nowrap;text-overflow:none;fill:#606060;width:350px;" text-anchor="end" transform="translate(0,0) rotate(-45 264.49823844550093 150)" y="150" opacity="1"><tspan>Brain - Anterior cingulate cortex (BA24)</tspan></text><text x="279.9888044832367" style="color:#606060;cursor:default;font-size:12px;font-family:Verdana, sans-serif;white-space:nowrap;text-overflow:none;fill:#606060;width:350px;" text-anchor="end" transform="translate(0,0) rotate(-45 279.9888044832367 150)" y="150" opacity="1"><tspan>Brain - Caudate (basal ganglia)</tspan></text><text x="295.4793705209726" style="color:#606060;cursor:default;font-size:12px;font-family:Verdana, sans-serif;white-space:nowrap;text-overflow:none;fill:#606060;width:350px;" text-anchor="end" transform="translate(0,0) rotate(-45 295.4793705209726 150)" y="150" opacity="1"><tspan>Brain - Cerebellar Hemisphere</tspan></text><text x="310.9699365587084" style="color:#606060;cursor:default;font-size:12px;font-family:Verdana, sans-serif;white-space:nowrap;text-overflow:none;fill:#606060;width:350px;" text-anchor="end" transform="translate(0,0) rotate(-45 310.9699365587084 150)" y="150" opacity="1"><tspan>Brain - Cerebellum</tspan></text><text x="326.4605025964443" style="color:#606060;cursor:default;font-size:12px;font-family:Verdana, sans-serif;white-space:nowrap;text-overflow:none;fill:#606060;width:350px;" text-anchor="end" transform="translate(0,0) rotate(-45 326.4605025964443 150)" y="150" opacity="1"><tspan>Brain - Cortex</tspan></text><text x="341.95106863418016" style="color:#606060;cursor:default;font-size:12px;font-family:Verdana, sans-serif;white-space:nowrap;text-overflow:none;fill:#606060;width:350px;" text-anchor="end" transform="translate(0,0) rotate(-45 341.95106863418016 150)" y="150" opacity="1"><tspan>Brain - Frontal Cortex (BA9)</tspan></text><text x="357.441634671916" style="color:#606060;cursor:default;font-size:12px;font-family:Verdana, sans-serif;white-space:nowrap;text-overflow:none;fill:#606060;width:350px;" text-anchor="end" transform="translate(0,0) rotate(-45 357.441634671916 150)" y="150" opacity="1"><tspan>Brain - Hippocampus</tspan></text><text x="372.93220070965185" style="color:#606060;cursor:default;font-size:12px;font-family:Verdana, sans-serif;white-space:nowrap;text-overflow:none;fill:#606060;width:350px;" text-anchor="end" transform="translate(0,0) rotate(-45 372.93220070965185 150)" y="150" opacity="1"><tspan>Brain - Hypothalamus</tspan></text><text x="388.4227667473877" style="color:#606060;cursor:default;font-size:12px;font-family:Verdana, sans-serif;white-space:nowrap;text-overflow:none;fill:#606060;width:350px;" text-anchor="end" transform="translate(0,0) rotate(-45 388.4227667473877 150)" y="150" opacity="1"><tspan>Brain - Nucleus accumbens (basal ganglia)</tspan></text><text x="403.9133327851236" style="color:#606060;cursor:default;font-size:12px;font-family:Verdana, sans-serif;white-space:nowrap;text-overflow:none;fill:#606060;width:350px;" text-anchor="end" transform="translate(0,0) rotate(-45 403.9133327851236 150)" y="150" opacity="1"><tspan>Brain - Putamen (basal ganglia)</tspan></text><text x="419.40389882285945" style="color:#606060;cursor:default;font-size:12px;font-family:Verdana, sans-serif;white-space:nowrap;text-overflow:none;fill:#606060;width:350px;" text-anchor="end" transform="translate(0,0) rotate(-45 419.40389882285945 150)" y="150" opacity="1"><tspan>Brain - Spinal cord (cervical c-1)</tspan></text><text x="434.8944648605953" style="color:#606060;cursor:default;font-size:12px;font-family:Verdana, sans-serif;white-space:nowrap;text-overflow:none;fill:#606060;width:350px;" text-anchor="end" transform="translate(0,0) rotate(-45 434.8944648605953 150)" y="150" opacity="1"><tspan>Brain - Substantia nigra</tspan></text><text x="450.38503089833114" style="color:#606060;cursor:default;font-size:12px;font-family:Verdana, sans-serif;white-space:nowrap;text-overflow:none;fill:#606060;width:350px;" text-anchor="end" transform="translate(0,0) rotate(-45 450.38503089833114 150)" y="150" opacity="1"><tspan>Breast - Mammary Tissue</tspan></text><text x="465.875596936067" style="color:#606060;cursor:default;font-size:12px;font-family:Verdana, sans-serif;white-space:nowrap;text-overflow:none;fill:#606060;width:350px;" text-anchor="end" transform="translate(0,0) rotate(-45 465.875596936067 150)" y="150" opacity="1"><tspan>Cells - EBV-transformed lymphocytes</tspan></text><text x="481.36616297380283" style="color:#606060;cursor:default;font-size:12px;font-family:Verdana, sans-serif;white-space:nowrap;text-overflow:none;fill:#606060;width:350px;" text-anchor="end" transform="translate(0,0) rotate(-45 481.36616297380283 150)" y="150" opacity="1"><tspan>Cells - Transformed fibroblasts</tspan></text><text x="496.8567290115387" style="color:#606060;cursor:default;font-size:12px;font-family:Verdana, sans-serif;white-space:nowrap;text-overflow:none;fill:#606060;width:350px;" text-anchor="end" transform="translate(0,0) rotate(-45 496.8567290115387 150)" y="150" opacity="1"><tspan>Cervix - Ectocervix</tspan></text><text x="512.3472950492746" style="color:#606060;cursor:default;font-size:12px;font-family:Verdana, sans-serif;white-space:nowrap;text-overflow:none;fill:#606060;width:350px;" text-anchor="end" transform="translate(0,0) rotate(-45 512.3472950492746 150)" y="150" opacity="1"><tspan>Cervix - Endocervix</tspan></text><text x="527.8378610870104" style="color:#606060;cursor:default;font-size:12px;font-family:Verdana, sans-serif;white-space:nowrap;text-overflow:none;fill:#606060;width:350px;" text-anchor="end" transform="translate(0,0) rotate(-45 527.8378610870104 150)" y="150" opacity="1"><tspan>Colon - Sigmoid</tspan></text><text x="543.3284271247462" style="color:#606060;cursor:default;font-size:12px;font-family:Verdana, sans-serif;white-space:nowrap;text-overflow:none;fill:#606060;width:350px;" text-anchor="end" transform="translate(0,0) rotate(-45 543.3284271247462 150)" y="150" opacity="1"><tspan>Colon - Transverse</tspan></text><text x="558.8189931624821" style="color:#606060;cursor:default;font-size:12px;font-family:Verdana, sans-serif;white-space:nowrap;text-overflow:none;fill:#606060;width:350px;" text-anchor="end" transform="translate(0,0) rotate(-45 558.8189931624821 150)" y="150" opacity="1"><tspan>Esophagus - Gastroesophageal Junction</tspan></text><text x="574.309559200218" style="color:#606060;cursor:default;font-size:12px;font-family:Verdana, sans-serif;white-space:nowrap;text-overflow:none;fill:#606060;width:350px;" text-anchor="end" transform="translate(0,0) rotate(-45 574.309559200218 150)" y="150" opacity="1"><tspan>Esophagus - Mucosa</tspan></text><text x="589.8001252379538" style="color:#606060;cursor:default;font-size:12px;font-family:Verdana, sans-serif;white-space:nowrap;text-overflow:none;fill:#606060;width:350px;" text-anchor="end" transform="translate(0,0) rotate(-45 589.8001252379538 150)" y="150" opacity="1"><tspan>Esophagus - Muscularis</tspan></text><text x="605.2906912756896" style="color:#606060;cursor:default;font-size:12px;font-family:Verdana, sans-serif;white-space:nowrap;text-overflow:none;fill:#606060;width:350px;" text-anchor="end" transform="translate(0,0) rotate(-45 605.2906912756896 150)" y="150" opacity="1"><tspan>Fallopian Tube</tspan></text><text x="620.7812573134255" style="color:#606060;cursor:default;font-size:12px;font-family:Verdana, sans-serif;white-space:nowrap;text-overflow:none;fill:#606060;width:350px;" text-anchor="end" transform="translate(0,0) rotate(-45 620.7812573134255 150)" y="150" opacity="1"><tspan>Heart - Atrial Appendage</tspan></text><text x="636.2718233511614" style="color:#606060;cursor:default;font-size:12px;font-family:Verdana, sans-serif;white-space:nowrap;text-overflow:none;fill:#606060;width:350px;" text-anchor="end" transform="translate(0,0) rotate(-45 636.2718233511614 150)" y="150" opacity="1"><tspan>Heart - Left Ventricle</tspan></text><text x="651.7623893888972" style="color:#606060;cursor:default;font-size:12px;font-family:Verdana, sans-serif;white-space:nowrap;text-overflow:none;fill:#606060;width:350px;" text-anchor="end" transform="translate(0,0) rotate(-45 651.7623893888972 150)" y="150" opacity="1"><tspan>Kidney - Cortex</tspan></text><text x="667.252955426633" style="color:#606060;cursor:default;font-size:12px;font-family:Verdana, sans-serif;white-space:nowrap;text-overflow:none;fill:#606060;width:350px;" text-anchor="end" transform="translate(0,0) rotate(-45 667.252955426633 150)" y="150" opacity="1"><tspan>Liver</tspan></text><text x="682.7435214643689" style="color:#606060;cursor:default;font-size:12px;font-family:Verdana, sans-serif;white-space:nowrap;text-overflow:none;fill:#606060;width:350px;" text-anchor="end" transform="translate(0,0) rotate(-45 682.7435214643689 150)" y="150" opacity="1"><tspan>Lung</tspan></text><text x="698.2340875021047" style="color:#606060;cursor:default;font-size:12px;font-family:Verdana, sans-serif;white-space:nowrap;text-overflow:none;fill:#606060;width:350px;" text-anchor="end" transform="translate(0,0) rotate(-45 698.2340875021047 150)" y="150" opacity="1"><tspan>Minor Salivary Gland</tspan></text><text x="713.7246535398406" style="color:#606060;cursor:default;font-size:12px;font-family:Verdana, sans-serif;white-space:nowrap;text-overflow:none;fill:#606060;width:350px;" text-anchor="end" transform="translate(0,0) rotate(-45 713.7246535398406 150)" y="150" opacity="1"><tspan>Muscle - Skeletal</tspan></text><text x="729.2152195775764" style="color:#606060;cursor:default;font-size:12px;font-family:Verdana, sans-serif;white-space:nowrap;text-overflow:none;fill:#606060;width:350px;" text-anchor="end" transform="translate(0,0) rotate(-45 729.2152195775764 150)" y="150" opacity="1"><tspan>Nerve - Tibial</tspan></text><text x="744.7057856153123" style="color:#606060;cursor:default;font-size:12px;font-family:Verdana, sans-serif;white-space:nowrap;text-overflow:none;fill:#606060;width:350px;" text-anchor="end" transform="translate(0,0) rotate(-45 744.7057856153123 150)" y="150" opacity="1"><tspan>Ovary</tspan></text><text x="760.1963516530482" style="color:#606060;cursor:default;font-size:12px;font-family:Verdana, sans-serif;white-space:nowrap;text-overflow:none;fill:#606060;width:350px;" text-anchor="end" transform="translate(0,0) rotate(-45 760.1963516530482 150)" y="150" opacity="1"><tspan>Pancreas</tspan></text><text x="775.686917690784" style="color:#606060;cursor:default;font-size:12px;font-family:Verdana, sans-serif;white-space:nowrap;text-overflow:none;fill:#606060;width:350px;" text-anchor="end" transform="translate(0,0) rotate(-45 775.686917690784 150)" y="150" opacity="1"><tspan>Pituitary</tspan></text><text x="791.1774837285199" style="color:#606060;cursor:default;font-size:12px;font-family:Verdana, sans-serif;white-space:nowrap;text-overflow:none;fill:#606060;width:350px;" text-anchor="end" transform="translate(0,0) rotate(-45 791.1774837285199 150)" y="150" opacity="1"><tspan>Prostate</tspan></text><text x="806.6680497662556" style="color:#606060;cursor:default;font-size:12px;font-family:Verdana, sans-serif;white-space:nowrap;text-overflow:none;fill:#606060;width:350px;" text-anchor="end" transform="translate(0,0) rotate(-45 806.6680497662556 150)" y="150" opacity="1"><tspan>Skin - Not Sun Exposed (Suprapubic)</tspan></text><text x="822.1586158039916" style="color:#606060;cursor:default;font-size:12px;font-family:Verdana, sans-serif;white-space:nowrap;text-overflow:none;fill:#606060;width:350px;" text-anchor="end" transform="translate(0,0) rotate(-45 822.1586158039916 150)" y="150" opacity="1"><tspan>Skin - Sun Exposed (Lower leg)</tspan></text><text x="837.6491818417273" style="color:#606060;cursor:default;font-size:12px;font-family:Verdana, sans-serif;white-space:nowrap;text-overflow:none;fill:#606060;width:350px;" text-anchor="end" transform="translate(0,0) rotate(-45 837.6491818417273 150)" y="150" opacity="1"><tspan>Small Intestine - Terminal Ileum</tspan></text><text x="853.1397478794632" style="color:#606060;cursor:default;font-size:12px;font-family:Verdana, sans-serif;white-space:nowrap;text-overflow:none;fill:#606060;width:350px;" text-anchor="end" transform="translate(0,0) rotate(-45 853.1397478794632 150)" y="150" opacity="1"><tspan>Spleen</tspan></text><text x="868.630313917199" style="color:#606060;cursor:default;font-size:12px;font-family:Verdana, sans-serif;white-space:nowrap;text-overflow:none;fill:#606060;width:350px;" text-anchor="end" transform="translate(0,0) rotate(-45 868.630313917199 150)" y="150" opacity="1"><tspan>Stomach</tspan></text><text x="884.1208799549349" style="color:#606060;cursor:default;font-size:12px;font-family:Verdana, sans-serif;white-space:nowrap;text-overflow:none;fill:#606060;width:350px;" text-anchor="end" transform="translate(0,0) rotate(-45 884.1208799549349 150)" y="150" opacity="1"><tspan>Testis</tspan></text><text x="899.6114459926707" style="color:#606060;cursor:default;font-size:12px;font-family:Verdana, sans-serif;white-space:nowrap;text-overflow:none;fill:#606060;width:350px;" text-anchor="end" transform="translate(0,0) rotate(-45 899.6114459926707 150)" y="150" opacity="1"><tspan>Thyroid</tspan></text><text x="915.1020120304066" style="color:#606060;cursor:default;font-size:12px;font-family:Verdana, sans-serif;white-space:nowrap;text-overflow:none;fill:#606060;width:350px;" text-anchor="end" transform="translate(0,0) rotate(-45 915.1020120304066 150)" y="150" opacity="1"><tspan>Uterus</tspan></text><text x="930.5925780681424" style="color:#606060;cursor:default;font-size:12px;font-family:Verdana, sans-serif;white-space:nowrap;text-overflow:none;fill:#606060;width:350px;" text-anchor="end" transform="translate(0,0) rotate(-45 930.5925780681424 150)" y="150" opacity="1"><tspan>Vagina</tspan></text><text x="946.0831441058783" style="color:#606060;cursor:default;font-size:12px;font-family:Verdana, sans-serif;white-space:nowrap;text-overflow:none;fill:#606060;width:350px;" text-anchor="end" transform="translate(0,0) rotate(-45 946.0831441058783 150)" y="150" opacity="1"><tspan>Whole Blood</tspan></text></g><g class="highcharts-axis-labels highcharts-yaxis-labels"><text x="115" style="color:#606060;cursor:default;font-size:11px;fill:#606060;width:110px;text-overflow:clip;" text-anchor="end" transform="translate(0,0)" y="139" opacity="1"><tspan>0</tspan></text><text x="115" style="color:#606060;cursor:default;font-size:11px;fill:#606060;width:110px;text-overflow:clip;" text-anchor="end" transform="translate(0,0)" y="56" opacity="1"><tspan>500</tspan></text><text x="115" style="color:#606060;cursor:default;font-size:11px;fill:#606060;width:110px;text-overflow:clip;" text-anchor="end" transform="translate(0,0)" y="97" opacity="1"><tspan>250</tspan></text><text x="115" style="color:#606060;cursor:default;font-size:11px;fill:#606060;width:110px;text-overflow:clip;" text-anchor="end" transform="translate(0,0)" y="15" opacity="1"><tspan>750</tspan></text></g><g class="highcharts-tooltip" style="cursor:default;padding:0;pointer-events:none;white-space:nowrap;" transform="translate(641,-9999)" opacity="0" visibility="visible"><path fill="none" d="M 3.5 0.5 L 63.5 0.5 69.5 -5.5 75.5 0.5 138 0.5 C 141.5 0.5 141.5 0.5 141.5 3.5 L 141.5 72.5 C 141.5 75.5 141.5 75.5 138.5 75.5 L 3.5 75.5 C 0.5 75.5 0.5 75.5 0.5 72.5 L 0.5 3.5 C 0.5 0.5 0.5 0.5 3.5 0.5" isShadow="true" stroke="black" stroke-opacity="0.049999999999999996" stroke-width="5" transform="translate(1, 1)"></path><path fill="none" d="M 3.5 0.5 L 63.5 0.5 69.5 -5.5 75.5 0.5 138 0.5 C 141.5 0.5 141.5 0.5 141.5 3.5 L 141.5 72.5 C 141.5 75.5 141.5 75.5 138.5 75.5 L 3.5 75.5 C 0.5 75.5 0.5 75.5 0.5 72.5 L 0.5 3.5 C 0.5 0.5 0.5 0.5 3.5 0.5" isShadow="true" stroke="black" stroke-opacity="0.09999999999999999" stroke-width="3" transform="translate(1, 1)"></path><path fill="none" d="M 3.5 0.5 L 63.5 0.5 69.5 -5.5 75.5 0.5 138 0.5 C 141.5 0.5 141.5 0.5 141.5 3.5 L 141.5 72.5 C 141.5 75.5 141.5 75.5 138.5 75.5 L 3.5 75.5 C 0.5 75.5 0.5 75.5 0.5 72.5 L 0.5 3.5 C 0.5 0.5 0.5 0.5 3.5 0.5" isShadow="true" stroke="black" stroke-opacity="0.15" stroke-width="1" transform="translate(1, 1)"></path><path fill="rgba(249, 249, 249, .85)" d="M 3.5 0.5 L 63.5 0.5 69.5 -5.5 75.5 0.5 138 0.5 C 141.5 0.5 141.5 0.5 141.5 3.5 L 141.5 72.5 C 141.5 75.5 141.5 75.5 138.5 75.5 L 3.5 75.5 C 0.5 75.5 0.5 75.5 0.5 72.5 L 0.5 3.5 C 0.5 0.5 0.5 0.5 3.5 0.5" stroke="#ccc" stroke-width="1"></path><text x="8" style="font-size:12px;color:#333333;fill:#333333;" y="20"><tspan style="font-weight:bold">Muscle - Skeletal</tspan><tspan x="8" dy="15">with genotype : 491</tspan><tspan x="8" dy="15">without genotype: 73</tspan><tspan x="8" dy="15">Total: 564</tspan></text></g></svg>